
<svg width="100" height="100" viewBox="0 0 100 100" fill="none" xmlns="http://www.w3.org/2000/svg">
<rect width="100" height="100" rx="20" fill="url(#paint0_linear_1_2)"/>
<path d="M50 25C36.1929 25 25 36.1929 25 50C25 63.8071 36.1929 75 50 75C63.8071 75 75 63.8071 75 50" stroke="white" stroke-width="6" stroke-linecap="round"/>
<path d="M38 45C39.6569 45 41 43.6569 41 42C41 40.3431 39.6569 39 38 39C36.3431 39 35 40.3431 35 42C35 43.6569 36.3431 45 38 45Z" fill="white"/>
<path d="M62 45C63.6569 45 65 43.6569 65 42C65 40.3431 63.6569 39 62 39C60.3431 39 59 40.3431 59 42C59 43.6569 60.3431 45 62 45Z" fill="white"/>
<path d="M38 62H62" stroke="white" stroke-width="5" stroke-linecap="round"/>
<defs>
<linearGradient id="paint0_linear_1_2" x1="0" y1="0" x2="100" y2="100" gradientUnits="userSpaceOnUse">
<stop stop-color="#4F46E5"/>
<stop offset="1" stop-color="#EC4899"/>
</linearGradient>
</defs>
</svg>
